<?xml version="1.0" encoding="utf-8"?><svg version="1.1" xmlns="http://www.w3.org/2000/svg" xmlns:xlink="http://www.w3.org/1999/xlink" width="500" height="500"><rect x="0" y="0" width="500" height="500" style="fill:#f6f6f6" /><line x1="1" y1="0" x2="1" y2="500" style="stroke:#fff" /><line x1="11" y1="0" x2="11" y2="500" style="stroke:#fff" /><line x1="21" y1="0" x2="21" y2="500" style="stroke:#fff" /><line x1="31" y1="0" x2="31" y2="500" style="stroke:#fff" /><line x1="41" y1="0" x2="41" y2="500" style="stroke:#fff" /><line x1="51" y1="0" x2="51" y2="500" style="stroke:#fff" /><line x1="61" y1="0" x2="61" y2="500" style="stroke:#fff" /><line x1="71" y1="0" x2="71" y2="500" style="stroke:#fff" /><line x1="81" y1="0" x2="81" y2="500" style="stroke:#fff" /><line x1="91" y1="0" x2="91" y2="500" style="stroke:#fff" /><line x1="101" y1="0" x2="101" y2="500" style="stroke:#fff" /><line x1="111" y1="0" x2="111" y2="500" style="stroke:#fff" /><line x1="121" y1="0" x2="121" y2="500" style="stroke:#fff" /><line x1="131" y1="0" x2="131" y2="500" style="stroke:#fff" /><line x1="141" y1="0" x2="141" y2="500" style="stroke:#fff" /><line x1="151" y1="0" x2="151" y2="500" style="stroke:#fff" /><line x1="161" y1="0" x2="161" y2="500" style="stroke:#fff" /><line x1="171" y1="0" x2="171" y2="500" style="stroke:#fff" /><line x1="181" y1="0" x2="181" y2="500" style="stroke:#fff" /><line x1="191" y1="0" x2="191" y2="500" style="stroke:#fff" /><line x1="201" y1="0" x2="201" y2="500" style="stroke:#fff" /><line x1="211" y1="0" x2="211" y2="500" style="stroke:#fff" /><line x1="221" y1="0" x2="221" y2="500" style="stroke:#fff" /><line x1="231" y1="0" x2="231" y2="500" style="stroke:#fff" /><line x1="241" y1="0" x2="241" y2="500" style="stroke:#fff" /><line x1="251" y1="0" x2="251" y2="500" style="stroke:#fff" /><line x1="261" y1="0" x2="261" y2="500" style="stroke:#fff" /><line x1="271" y1="0" x2="271" y2="500" style="stroke:#fff" /><line x1="281" y1="0" x2="281" y2="500" style="stroke:#fff" /><line x1="291" y1="0" x2="291" y2="500" style="stroke:#fff" /><line x1="301" y1="0" x2="301" y2="500" style="stroke:#fff" /><line x1="311" y1="0" x2="311" y2="500" style="stroke:#fff" /><line x1="321" y1="0" x2="321" y2="500" style="stroke:#fff" /><line x1="331" y1="0" x2="331" y2="500" style="stroke:#fff" /><line x1="341" y1="0" x2="341" y2="500" style="stroke:#fff" /><line x1="351" y1="0" x2="351" y2="500" style="stroke:#fff" /><line x1="361" y1="0" x2="361" y2="500" style="stroke:#fff" /><line x1="371" y1="0" x2="371" y2="500" style="stroke:#fff" /><line x1="381" y1="0" x2="381" y2="500" style="stroke:#fff" /><line x1="391" y1="0" x2="391" y2="500" style="stroke:#fff" /><line x1="401" y1="0" x2="401" y2="500" style="stroke:#fff" /><line x1="411" y1="0" x2="411" y2="500" style="stroke:#fff" /><line x1="421" y1="0" x2="421" y2="500" style="stroke:#fff" /><line x1="431" y1="0" x2="431" y2="500" style="stroke:#fff" /><line x1="441" y1="0" x2="441" y2="500" style="stroke:#fff" /><line x1="451" y1="0" x2="451" y2="500" style="stroke:#fff" /><line x1="461" y1="0" x2="461" y2="500" style="stroke:#fff" /><line x1="471" y1="0" x2="471" y2="500" style="stroke:#fff" /><line x1="481" y1="0" x2="481" y2="500" style="stroke:#fff" /><line x1="491" y1="0" x2="491" y2="500" style="stroke:#fff" /><line x1="0" y1="7" x2="500" y2="7" style="stroke:#fff" /><line x1="0" y1="17" x2="500" y2="17" style="stroke:#fff" /><line x1="0" y1="27" x2="500" y2="27" style="stroke:#fff" /><line x1="0" y1="37" x2="500" y2="37" style="stroke:#fff" /><line x1="0" y1="47" x2="500" y2="47" style="stroke:#fff" /><line x1="0" y1="57" x2="500" y2="57" style="stroke:#fff" /><line x1="0" y1="67" x2="500" y2="67" style="stroke:#fff" /><line x1="0" y1="77" x2="500" y2="77" style="stroke:#fff" /><line x1="0" y1="87" x2="500" y2="87" style="stroke:#fff" /><line x1="0" y1="97" x2="500" y2="97" style="stroke:#fff" /><line x1="0" y1="107" x2="500" y2="107" style="stroke:#fff" /><line x1="0" y1="117" x2="500" y2="117" style="stroke:#fff" /><line x1="0" y1="127" x2="500" y2="127" style="stroke:#fff" /><line x1="0" y1="137" x2="500" y2="137" style="stroke:#fff" /><line x1="0" y1="147" x2="500" y2="147" style="stroke:#fff" /><line x1="0" y1="157" x2="500" y2="157" style="stroke:#fff" /><line x1="0" y1="167" x2="500" y2="167" style="stroke:#fff" /><line x1="0" y1="177" x2="500" y2="177" style="stroke:#fff" /><line x1="0" y1="187" x2="500" y2="187" style="stroke:#fff" /><line x1="0" y1="197" x2="500" y2="197" style="stroke:#fff" /><line x1="0" y1="207" x2="500" y2="207" style="stroke:#fff" /><line x1="0" y1="217" x2="500" y2="217" style="stroke:#fff" /><line x1="0" y1="227" x2="500" y2="227" style="stroke:#fff" /><line x1="0" y1="237" x2="500" y2="237" style="stroke:#fff" /><line x1="0" y1="247" x2="500" y2="247" style="stroke:#fff" /><line x1="0" y1="257" x2="500" y2="257" style="stroke:#fff" /><line x1="0" y1="267" x2="500" y2="267" style="stroke:#fff" /><line x1="0" y1="277" x2="500" y2="277" style="stroke:#fff" /><line x1="0" y1="287" x2="500" y2="287" style="stroke:#fff" /><line x1="0" y1="297" x2="500" y2="297" style="stroke:#fff" /><line x1="0" y1="307" x2="500" y2="307" style="stroke:#fff" /><line x1="0" y1="317" x2="500" y2="317" style="stroke:#fff" /><line x1="0" y1="327" x2="500" y2="327" style="stroke:#fff" /><line x1="0" y1="337" x2="500" y2="337" style="stroke:#fff" /><line x1="0" y1="347" x2="500" y2="347" style="stroke:#fff" /><line x1="0" y1="357" x2="500" y2="357" style="stroke:#fff" /><line x1="0" y1="367" x2="500" y2="367" style="stroke:#fff" /><line x1="0" y1="377" x2="500" y2="377" style="stroke:#fff" /><line x1="0" y1="387" x2="500" y2="387" style="stroke:#fff" /><line x1="0" y1="397" x2="500" y2="397" style="stroke:#fff" /><line x1="0" y1="407" x2="500" y2="407" style="stroke:#fff" /><line x1="0" y1="417" x2="500" y2="417" style="stroke:#fff" /><line x1="0" y1="427" x2="500" y2="427" style="stroke:#fff" /><line x1="0" y1="437" x2="500" y2="437" style="stroke:#fff" /><line x1="0" y1="447" x2="500" y2="447" style="stroke:#fff" /><line x1="0" y1="457" x2="500" y2="457" style="stroke:#fff" /><line x1="0" y1="467" x2="500" y2="467" style="stroke:#fff" /><line x1="0" y1="477" x2="500" y2="477" style="stroke:#fff" /><line x1="0" y1="487" x2="500" y2="487" style="stroke:#fff" /><line x1="0" y1="497" x2="500" y2="497" style="stroke:#fff" /><rect x="321" y="187" width="9" height="9" style="fill:#555" /><rect x="301" y="197" width="9" height="9" style="fill:#555" /><rect x="321" y="197" width="9" height="9" style="fill:#555" /><rect x="201" y="207" width="9" height="9" style="fill:#555" /><rect x="211" y="207" width="9" height="9" style="fill:#555" /><rect x="281" y="207" width="9" height="9" style="fill:#555" /><rect x="291" y="207" width="9" height="9" style="fill:#555" /><rect x="421" y="207" width="9" height="9" style="fill:#555" /><rect x="431" y="207" width="9" height="9" style="fill:#555" /><rect x="191" y="217" width="9" height="9" style="fill:#555" /><rect x="231" y="217" width="9" height="9" style="fill:#555" /><rect x="281" y="217" width="9" height="9" style="fill:#555" /><rect x="291" y="217" width="9" height="9" style="fill:#555" /><rect x="421" y="217" width="9" height="9" style="fill:#555" /><rect x="431" y="217" width="9" height="9" style="fill:#555" /><rect x="81" y="227" width="9" height="9" style="fill:#555" /><rect x="91" y="227" width="9" height="9" style="fill:#555" /><rect x="181" y="227" width="9" height="9" style="fill:#555" /><rect x="241" y="227" width="9" height="9" style="fill:#555" /><rect x="281" y="227" width="9" height="9" style="fill:#555" /><rect x="291" y="227" width="9" height="9" style="fill:#555" /><rect x="81" y="237" width="9" height="9" style="fill:#555" /><rect x="91" y="237" width="9" height="9" style="fill:#555" /><rect x="181" y="237" width="9" height="9" style="fill:#555" /><rect x="221" y="237" width="9" height="9" style="fill:#555" /><rect x="241" y="237" width="9" height="9" style="fill:#555" /><rect x="251" y="237" width="9" height="9" style="fill:#555" /><rect x="301" y="237" width="9" height="9" style="fill:#555" /><rect x="321" y="237" width="9" height="9" style="fill:#555" /><rect x="181" y="247" width="9" height="9" style="fill:#555" /><rect x="241" y="247" width="9" height="9" style="fill:#555" /><rect x="321" y="247" width="9" height="9" style="fill:#555" /><rect x="191" y="257" width="9" height="9" style="fill:#555" /><rect x="231" y="257" width="9" height="9" style="fill:#555" /><rect x="201" y="267" width="9" height="9" style="fill:#555" /><rect x="211" y="267" width="9" height="9" style="fill:#555" /></svg>