<?xml version="1.0" encoding="utf-8"?><svg version="1.1" xmlns="http://www.w3.org/2000/svg" xmlns:xlink="http://www.w3.org/1999/xlink" width="500" height="500"><rect x="0" y="0" width="500" height="500" style="fill:#f6f6f6" /><line x1="17" y1="0" x2="17" y2="500" style="stroke:#fff" /><line x1="37" y1="0" x2="37" y2="500" style="stroke:#fff" /><line x1="57" y1="0" x2="57" y2="500" style="stroke:#fff" /><line x1="77" y1="0" x2="77" y2="500" style="stroke:#fff" /><line x1="97" y1="0" x2="97" y2="500" style="stroke:#fff" /><line x1="117" y1="0" x2="117" y2="500" style="stroke:#fff" /><line x1="137" y1="0" x2="137" y2="500" style="stroke:#fff" /><line x1="157" y1="0" x2="157" y2="500" style="stroke:#fff" /><line x1="177" y1="0" x2="177" y2="500" style="stroke:#fff" /><line x1="197" y1="0" x2="197" y2="500" style="stroke:#fff" /><line x1="217" y1="0" x2="217" y2="500" style="stroke:#fff" /><line x1="237" y1="0" x2="237" y2="500" style="stroke:#fff" /><line x1="257" y1="0" x2="257" y2="500" style="stroke:#fff" /><line x1="277" y1="0" x2="277" y2="500" style="stroke:#fff" /><line x1="297" y1="0" x2="297" y2="500" style="stroke:#fff" /><line x1="317" y1="0" x2="317" y2="500" style="stroke:#fff" /><line x1="337" y1="0" x2="337" y2="500" style="stroke:#fff" /><line x1="357" y1="0" x2="357" y2="500" style="stroke:#fff" /><line x1="377" y1="0" x2="377" y2="500" style="stroke:#fff" /><line x1="397" y1="0" x2="397" y2="500" style="stroke:#fff" /><line x1="417" y1="0" x2="417" y2="500" style="stroke:#fff" /><line x1="437" y1="0" x2="437" y2="500" style="stroke:#fff" /><line x1="457" y1="0" x2="457" y2="500" style="stroke:#fff" /><line x1="477" y1="0" x2="477" y2="500" style="stroke:#fff" /><line x1="497" y1="0" x2="497" y2="500" style="stroke:#fff" /><line x1="0" y1="17" x2="500" y2="17" style="stroke:#fff" /><line x1="0" y1="37" x2="500" y2="37" style="stroke:#fff" /><line x1="0" y1="57" x2="500" y2="57" style="stroke:#fff" /><line x1="0" y1="77" x2="500" y2="77" style="stroke:#fff" /><line x1="0" y1="97" x2="500" y2="97" style="stroke:#fff" /><line x1="0" y1="117" x2="500" y2="117" style="stroke:#fff" /><line x1="0" y1="137" x2="500" y2="137" style="stroke:#fff" /><line x1="0" y1="157" x2="500" y2="157" style="stroke:#fff" /><line x1="0" y1="177" x2="500" y2="177" style="stroke:#fff" /><line x1="0" y1="197" x2="500" y2="197" style="stroke:#fff" /><line x1="0" y1="217" x2="500" y2="217" style="stroke:#fff" /><line x1="0" y1="237" x2="500" y2="237" style="stroke:#fff" /><line x1="0" y1="257" x2="500" y2="257" style="stroke:#fff" /><line x1="0" y1="277" x2="500" y2="277" style="stroke:#fff" /><line x1="0" y1="297" x2="500" y2="297" style="stroke:#fff" /><line x1="0" y1="317" x2="500" y2="317" style="stroke:#fff" /><line x1="0" y1="337" x2="500" y2="337" style="stroke:#fff" /><line x1="0" y1="357" x2="500" y2="357" style="stroke:#fff" /><line x1="0" y1="377" x2="500" y2="377" style="stroke:#fff" /><line x1="0" y1="397" x2="500" y2="397" style="stroke:#fff" /><line x1="0" y1="417" x2="500" y2="417" style="stroke:#fff" /><line x1="0" y1="437" x2="500" y2="437" style="stroke:#fff" /><line x1="0" y1="457" x2="500" y2="457" style="stroke:#fff" /><line x1="0" y1="477" x2="500" y2="477" style="stroke:#fff" /><line x1="0" y1="497" x2="500" y2="497" style="stroke:#fff" /><rect x="97" y="77" width="19" height="19" style="fill:#555" /><rect x="117" y="77" width="19" height="19" style="fill:#555" /><rect x="137" y="77" width="19" height="19" style="fill:#555" /><rect x="157" y="77" width="19" height="19" style="fill:#555" /><rect x="77" y="97" width="19" height="19" style="fill:#555" /><rect x="157" y="97" width="19" height="19" style="fill:#555" /><rect x="157" y="117" width="19" height="19" style="fill:#555" /><rect x="77" y="137" width="19" height="19" style="fill:#555" /><rect x="137" y="137" width="19" height="19" style="fill:#555" /><rect x="297" y="177" width="19" height="19" style="fill:#555" /><rect x="317" y="177" width="19" height="19" style="fill:#555" /><rect x="337" y="177" width="19" height="19" style="fill:#555" /><rect x="357" y="177" width="19" height="19" style="fill:#555" /><rect x="277" y="197" width="19" height="19" style="fill:#555" /><rect x="357" y="197" width="19" height="19" style="fill:#555" /><rect x="357" y="217" width="19" height="19" style="fill:#555" /><rect x="277" y="237" width="19" height="19" style="fill:#555" /><rect x="337" y="237" width="19" height="19" style="fill:#555" /><rect x="97" y="297" width="19" height="19" style="fill:#555" /><rect x="117" y="297" width="19" height="19" style="fill:#555" /><rect x="137" y="297" width="19" height="19" style="fill:#555" /><rect x="157" y="297" width="19" height="19" style="fill:#555" /><rect x="77" y="317" width="19" height="19" style="fill:#555" /><rect x="157" y="317" width="19" height="19" style="fill:#555" /><rect x="157" y="337" width="19" height="19" style="fill:#555" /><rect x="77" y="357" width="19" height="19" style="fill:#555" /><rect x="137" y="357" width="19" height="19" style="fill:#555" /></svg>