<?xml version="1.0" encoding="utf-8"?><svg version="1.1" xmlns="http://www.w3.org/2000/svg" xmlns:xlink="http://www.w3.org/1999/xlink" width="500" height="500"><rect x="0" y="0" width="500" height="500" style="fill:#f6f6f6" /><line x1="10" y1="0" x2="10" y2="500" style="stroke:#fff" /><line x1="30" y1="0" x2="30" y2="500" style="stroke:#fff" /><line x1="50" y1="0" x2="50" y2="500" style="stroke:#fff" /><line x1="70" y1="0" x2="70" y2="500" style="stroke:#fff" /><line x1="90" y1="0" x2="90" y2="500" style="stroke:#fff" /><line x1="110" y1="0" x2="110" y2="500" style="stroke:#fff" /><line x1="130" y1="0" x2="130" y2="500" style="stroke:#fff" /><line x1="150" y1="0" x2="150" y2="500" style="stroke:#fff" /><line x1="170" y1="0" x2="170" y2="500" style="stroke:#fff" /><line x1="190" y1="0" x2="190" y2="500" style="stroke:#fff" /><line x1="210" y1="0" x2="210" y2="500" style="stroke:#fff" /><line x1="230" y1="0" x2="230" y2="500" style="stroke:#fff" /><line x1="250" y1="0" x2="250" y2="500" style="stroke:#fff" /><line x1="270" y1="0" x2="270" y2="500" style="stroke:#fff" /><line x1="290" y1="0" x2="290" y2="500" style="stroke:#fff" /><line x1="310" y1="0" x2="310" y2="500" style="stroke:#fff" /><line x1="330" y1="0" x2="330" y2="500" style="stroke:#fff" /><line x1="350" y1="0" x2="350" y2="500" style="stroke:#fff" /><line x1="370" y1="0" x2="370" y2="500" style="stroke:#fff" /><line x1="390" y1="0" x2="390" y2="500" style="stroke:#fff" /><line x1="410" y1="0" x2="410" y2="500" style="stroke:#fff" /><line x1="430" y1="0" x2="430" y2="500" style="stroke:#fff" /><line x1="450" y1="0" x2="450" y2="500" style="stroke:#fff" /><line x1="470" y1="0" x2="470" y2="500" style="stroke:#fff" /><line x1="490" y1="0" x2="490" y2="500" style="stroke:#fff" /><line x1="0" y1="10" x2="500" y2="10" style="stroke:#fff" /><line x1="0" y1="30" x2="500" y2="30" style="stroke:#fff" /><line x1="0" y1="50" x2="500" y2="50" style="stroke:#fff" /><line x1="0" y1="70" x2="500" y2="70" style="stroke:#fff" /><line x1="0" y1="90" x2="500" y2="90" style="stroke:#fff" /><line x1="0" y1="110" x2="500" y2="110" style="stroke:#fff" /><line x1="0" y1="130" x2="500" y2="130" style="stroke:#fff" /><line x1="0" y1="150" x2="500" y2="150" style="stroke:#fff" /><line x1="0" y1="170" x2="500" y2="170" style="stroke:#fff" /><line x1="0" y1="190" x2="500" y2="190" style="stroke:#fff" /><line x1="0" y1="210" x2="500" y2="210" style="stroke:#fff" /><line x1="0" y1="230" x2="500" y2="230" style="stroke:#fff" /><line x1="0" y1="250" x2="500" y2="250" style="stroke:#fff" /><line x1="0" y1="270" x2="500" y2="270" style="stroke:#fff" /><line x1="0" y1="290" x2="500" y2="290" style="stroke:#fff" /><line x1="0" y1="310" x2="500" y2="310" style="stroke:#fff" /><line x1="0" y1="330" x2="500" y2="330" style="stroke:#fff" /><line x1="0" y1="350" x2="500" y2="350" style="stroke:#fff" /><line x1="0" y1="370" x2="500" y2="370" style="stroke:#fff" /><line x1="0" y1="390" x2="500" y2="390" style="stroke:#fff" /><line x1="0" y1="410" x2="500" y2="410" style="stroke:#fff" /><line x1="0" y1="430" x2="500" y2="430" style="stroke:#fff" /><line x1="0" y1="450" x2="500" y2="450" style="stroke:#fff" /><line x1="0" y1="470" x2="500" y2="470" style="stroke:#fff" /><line x1="0" y1="490" x2="500" y2="490" style="stroke:#fff" /><rect x="190" y="130" width="19" height="19" style="fill:#555" /><rect x="210" y="130" width="19" height="19" style="fill:#555" /><rect x="70" y="150" width="19" height="19" style="fill:#555" /><rect x="90" y="150" width="19" height="19" style="fill:#555" /><rect x="170" y="150" width="19" height="19" style="fill:#555" /><rect x="230" y="150" width="19" height="19" style="fill:#555" /><rect x="70" y="170" width="19" height="19" style="fill:#555" /><rect x="90" y="170" width="19" height="19" style="fill:#555" /><rect x="190" y="170" width="19" height="19" style="fill:#555" /><rect x="210" y="170" width="19" height="19" style="fill:#555" /><rect x="310" y="190" width="19" height="19" style="fill:#555" /><rect x="290" y="210" width="19" height="19" style="fill:#555" /><rect x="330" y="210" width="19" height="19" style="fill:#555" /><rect x="70" y="230" width="19" height="19" style="fill:#555" /><rect x="90" y="230" width="19" height="19" style="fill:#555" /><rect x="190" y="230" width="19" height="19" style="fill:#555" /><rect x="210" y="230" width="19" height="19" style="fill:#555" /><rect x="310" y="230" width="19" height="19" style="fill:#555" /><rect x="50" y="250" width="19" height="19" style="fill:#555" /><rect x="110" y="250" width="19" height="19" style="fill:#555" /><rect x="190" y="250" width="19" height="19" style="fill:#555" /><rect x="230" y="250" width="19" height="19" style="fill:#555" /><rect x="70" y="270" width="19" height="19" style="fill:#555" /><rect x="110" y="270" width="19" height="19" style="fill:#555" /><rect x="210" y="270" width="19" height="19" style="fill:#555" /><rect x="90" y="290" width="19" height="19" style="fill:#555" /></svg>