<?xml version="1.0" encoding="utf-8"?><svg version="1.1" xmlns="http://www.w3.org/2000/svg" xmlns:xlink="http://www.w3.org/1999/xlink" width="500" height="500"><rect x="0" y="0" width="500" height="500" style="fill:#f6f6f6" /><line x1="8" y1="0" x2="8" y2="500" style="stroke:#fff" /><line x1="63" y1="0" x2="63" y2="500" style="stroke:#fff" /><line x1="118" y1="0" x2="118" y2="500" style="stroke:#fff" /><line x1="173" y1="0" x2="173" y2="500" style="stroke:#fff" /><line x1="228" y1="0" x2="228" y2="500" style="stroke:#fff" /><line x1="283" y1="0" x2="283" y2="500" style="stroke:#fff" /><line x1="338" y1="0" x2="338" y2="500" style="stroke:#fff" /><line x1="393" y1="0" x2="393" y2="500" style="stroke:#fff" /><line x1="448" y1="0" x2="448" y2="500" style="stroke:#fff" /><line x1="0" y1="47" x2="500" y2="47" style="stroke:#fff" /><line x1="0" y1="102" x2="500" y2="102" style="stroke:#fff" /><line x1="0" y1="157" x2="500" y2="157" style="stroke:#fff" /><line x1="0" y1="212" x2="500" y2="212" style="stroke:#fff" /><line x1="0" y1="267" x2="500" y2="267" style="stroke:#fff" /><line x1="0" y1="322" x2="500" y2="322" style="stroke:#fff" /><line x1="0" y1="377" x2="500" y2="377" style="stroke:#fff" /><line x1="0" y1="432" x2="500" y2="432" style="stroke:#fff" /><line x1="0" y1="487" x2="500" y2="487" style="stroke:#fff" /><rect x="228" y="157" width="54" height="54" style="fill:#555" /><rect x="283" y="212" width="54" height="54" style="fill:#555" /><rect x="173" y="267" width="54" height="54" style="fill:#555" /><rect x="228" y="267" width="54" height="54" style="fill:#555" /><rect x="283" y="267" width="54" height="54" style="fill:#555" /></svg>