<?xml version="1.0" encoding="utf-8"?><svg version="1.1" xmlns="http://www.w3.org/2000/svg" xmlns:xlink="http://www.w3.org/1999/xlink" width="500" height="500"><rect x="0" y="0" width="500" height="500" style="fill:#f6f6f6" /><line x1="29" y1="0" x2="29" y2="500" style="stroke:#fff" /><line x1="84" y1="0" x2="84" y2="500" style="stroke:#fff" /><line x1="139" y1="0" x2="139" y2="500" style="stroke:#fff" /><line x1="194" y1="0" x2="194" y2="500" style="stroke:#fff" /><line x1="249" y1="0" x2="249" y2="500" style="stroke:#fff" /><line x1="304" y1="0" x2="304" y2="500" style="stroke:#fff" /><line x1="359" y1="0" x2="359" y2="500" style="stroke:#fff" /><line x1="414" y1="0" x2="414" y2="500" style="stroke:#fff" /><line x1="469" y1="0" x2="469" y2="500" style="stroke:#fff" /><line x1="0" y1="13" x2="500" y2="13" style="stroke:#fff" /><line x1="0" y1="68" x2="500" y2="68" style="stroke:#fff" /><line x1="0" y1="123" x2="500" y2="123" style="stroke:#fff" /><line x1="0" y1="178" x2="500" y2="178" style="stroke:#fff" /><line x1="0" y1="233" x2="500" y2="233" style="stroke:#fff" /><line x1="0" y1="288" x2="500" y2="288" style="stroke:#fff" /><line x1="0" y1="343" x2="500" y2="343" style="stroke:#fff" /><line x1="0" y1="398" x2="500" y2="398" style="stroke:#fff" /><line x1="0" y1="453" x2="500" y2="453" style="stroke:#fff" /><rect x="139" y="123" width="54" height="54" style="fill:#555" /><rect x="249" y="178" width="54" height="54" style="fill:#555" /><rect x="84" y="233" width="54" height="54" style="fill:#555" /><rect x="139" y="233" width="54" height="54" style="fill:#555" /><rect x="304" y="233" width="54" height="54" style="fill:#555" /><rect x="359" y="233" width="54" height="54" style="fill:#555" /><rect x="414" y="233" width="54" height="54" style="fill:#555" /></svg>