<?xml version="1.0" standalone="no"?>
<!DOCTYPE svg PUBLIC "-//W3C//DTD SVG 20010904//EN"
 "http://www.w3.org/TR/2001/REC-SVG-20010904/DTD/svg10.dtd">
<svg version="1.0" xmlns="http://www.w3.org/2000/svg"
 width="500.000000pt" height="500.000000pt" viewBox="0 0 500.000000 500.000000"
 preserveAspectRatio="xMidYMid meet">
<metadata>
Created by potrace 1.11, written by Peter Selinger 2001-2013
</metadata>
<g transform="translate(0.000000,500.000000) scale(0.100000,-0.100000)"
fill="#000000" stroke="none">
<path d="M2345 4670 c-418 -30 -809 -176 -1155 -433 -122 -91 -336 -305 -427
-427 -290 -392 -435 -825 -435 -1305 0 -184 23 -394 48 -432 20 -32 78 -32 98
0 14 20 14 33 0 112 -8 50 -17 160 -21 245 -35 905 536 1727 1398 2014 706
234 1477 73 2024 -424 452 -411 697 -991 672 -1595 -4 -82 -13 -190 -21 -240
-14 -79 -14 -92 0 -112 20 -32 78 -32 98 0 45 68 63 495 31 722 -67 479 -275
896 -619 1241 -288 287 -608 471 -990 569 -224 57 -477 81 -701 65z"/>
<path d="M2175 4288 c-3 -7 -4 -153 -3 -323 l3 -310 325 0 325 0 0 320 0 320
-323 3 c-254 2 -324 0 -327 -10z"/>
<path d="M2980 3175 l0 -325 325 0 325 0 0 325 0 325 -325 0 -325 0 0 -325z"/>
<path d="M1377 2693 c-4 -3 -7 -150 -7 -325 l0 -318 325 0 325 0 -2 323 -3
322 -316 3 c-173 1 -318 -1 -322 -5z"/>
<path d="M2177 2693 c-4 -3 -7 -150 -7 -325 l0 -318 330 0 330 0 -2 323 -3
322 -321 3 c-176 1 -323 -1 -327 -5z"/>
<path d="M2987 2693 c-4 -3 -7 -150 -7 -325 l0 -318 325 0 325 0 -2 323 -3
322 -316 3 c-173 1 -318 -1 -322 -5z"/>
<path d="M540 2057 c-117 -26 -202 -102 -270 -242 -55 -113 -77 -242 -61 -366
31 -244 147 -465 314 -599 90 -72 300 -175 422 -207 86 -22 128 -26 300 -30
305 -8 496 21 715 108 221 88 451 256 530 387 9 16 11 16 20 0 79 -131 309
-299 530 -387 219 -87 410 -116 715 -108 172 4 214 8 300 30 122 32 332 135
422 207 166 133 281 352 314 595 31 237 -81 498 -252 585 -19 10 -63 23 -96
29 -100 19 -176 -8 -209 -71 l-17 -32 32 27 c42 35 106 36 177 3 177 -83 254
-349 158 -552 -50 -105 -172 -215 -316 -284 -293 -141 -617 -63 -836 200 -162
195 -225 253 -340 310 -93 46 -186 63 -312 57 -122 -6 -195 -29 -246 -78 l-33
-32 -42 36 c-57 50 -116 68 -239 74 -126 6 -219 -11 -312 -57 -115 -57 -178
-115 -340 -310 -218 -263 -543 -341 -836 -200 -144 69 -266 179 -316 284 -96
203 -19 469 158 552 72 33 135 32 177 -3 l33 -28 -20 35 c-37 65 -121 90 -224
67z"/>
<path d="M1676 615 c-11 -11 -16 -29 -14 -49 3 -28 11 -35 78 -68 145 -72 367
-136 554 -159 149 -18 411 -6 562 25 181 38 442 134 472 173 28 37 1 93 -45
93 -11 0 -53 -15 -94 -34 -92 -42 -276 -100 -394 -123 -128 -25 -463 -25 -590
0 -126 25 -273 70 -369 113 -100 45 -137 52 -160 29z"/>
</g>
</svg>
